<?xml version="1.0" standalone="no"?>
<!DOCTYPE svg PUBLIC "-//W3C//DTD SVG 20010904//EN"
 "http://www.w3.org/TR/2001/REC-SVG-20010904/DTD/svg10.dtd">
<svg version="1.0" xmlns="http://www.w3.org/2000/svg"
 width="512.000000pt" height="512.000000pt" viewBox="0 0 512.000000 512.000000"
 preserveAspectRatio="xMidYMid meet">

<g transform="translate(0.000000,512.000000) scale(0.100000,-0.100000)"
fill="#000000" stroke="none">
<path d="M0 2560 l0 -2560 2560 0 2560 0 0 2560 0 2560 -2560 0 -2560 0 0
-2560z m1034 2259 c29 -49 185 -202 251 -246 140 -94 286 -150 415 -160 71 -5
82 -3 200 40 286 103 437 131 700 130 276 -1 488 -40 755 -138 72 -27 116 -37
155 -36 116 1 311 69 434 152 75 50 228 200 261 257 41 69 67 21 73 -135 3
-95 1 -121 -17 -176 -50 -148 -177 -298 -326 -382 -27 -16 -52 -30 -53 -31 -2
-2 17 -32 42 -67 180 -253 251 -625 171 -903 -50 -172 -161 -361 -235 -399
-43 -22 -102 -19 -129 6 -38 35 -25 93 37 172 106 135 146 241 162 432 16 183
-23 360 -109 492 -147 225 -433 295 -696 169 -132 -63 -280 -197 -354 -321
-37 -62 -77 -186 -87 -271 -6 -50 -4 -57 36 -121 24 -37 69 -105 101 -150 33
-44 59 -84 59 -88 0 -19 -247 -354 -259 -352 -17 2 -97 104 -193 246 l-71 105
24 45 c13 24 59 101 102 170 89 143 88 134 42 288 -45 148 -165 295 -328 401
-101 66 -207 102 -322 109 -80 5 -99 2 -170 -21 -99 -34 -157 -70 -227 -144
-67 -70 -110 -156 -144 -287 -33 -130 -30 -285 7 -380 53 -137 130 -242 236
-321 170 -129 312 -166 531 -140 l72 8 0 -26 c0 -32 -69 -105 -129 -135 -80
-41 -147 -52 -272 -45 -71 4 -119 3 -122 -3 -12 -19 25 -53 101 -93 183 -95
309 -230 421 -451 69 -136 118 -283 157 -469 15 -74 32 -141 37 -147 6 -8 33
-13 67 -13 53 0 62 4 106 40 85 69 333 365 474 564 113 159 254 329 349 418
l92 88 -40 86 -41 87 -57 -7 c-58 -6 -153 5 -208 26 -65 24 -90 70 -65 118 14
25 43 30 221 36 85 3 172 6 194 7 39 2 41 1 72 -58 29 -56 140 -374 197 -565
l26 -85 152 0 c145 0 158 -2 248 -32 264 -90 476 -304 571 -580 75 -219 63
-501 -31 -726 -113 -271 -357 -464 -660 -521 -105 -20 -145 -20 -255 3 -175
36 -303 103 -435 227 -264 249 -363 661 -243 1012 73 217 233 417 406 507 42
22 77 46 77 54 0 32 -63 201 -75 201 -7 0 -34 -21 -60 -47 -45 -47 -234 -292
-330 -428 -114 -162 -269 -348 -424 -507 -57 -59 -63 -69 -51 -83 9 -11 16
-51 18 -109 4 -90 3 -92 -29 -141 -50 -74 -108 -100 -221 -100 -80 0 -89 2
-130 31 l-44 31 -33 -89 c-85 -224 -270 -418 -487 -508 -127 -53 -240 -73
-379 -67 -134 6 -203 21 -310 71 -106 49 -179 100 -265 186 -82 81 -122 134
-165 220 -53 105 -74 180 -100 355 -9 60 -20 115 -24 123 -5 9 -17 -2 -39 -36
-32 -50 -78 -92 -164 -150 -62 -42 -72 -41 -64 6 45 252 191 652 387 1060 103
214 152 299 344 597 89 138 170 266 180 284 18 37 18 63 -5 226 -38 281 36
588 195 803 25 35 45 65 43 67 -2 2 -37 26 -78 53 -104 68 -203 173 -250 263
-45 86 -65 171 -64 274 0 97 18 175 41 175 5 0 17 -14 27 -31z m1015 -1096
c66 -21 125 -72 159 -137 24 -45 27 -62 27 -146 0 -85 -3 -100 -27 -141 -56
-94 -134 -141 -238 -142 -165 -2 -282 136 -267 314 8 99 46 165 130 229 21 16
100 38 138 39 15 1 50 -6 78 -16z m1292 1 c69 -20 148 -97 172 -169 21 -61 22
-183 2 -231 -37 -88 -124 -155 -221 -170 -100 -15 -222 54 -271 153 -23 49
-28 70 -27 135 0 65 5 86 32 141 36 73 81 113 157 139 63 22 88 22 156 2z"/>
<path d="M1300 2013 c-119 -20 -258 -93 -361 -191 -201 -189 -298 -470 -255
-734 29 -176 89 -298 209 -425 163 -171 405 -247 630 -197 92 20 217 79 284
133 114 90 215 243 262 395 33 106 33 106 -46 106 -53 0 -252 19 -353 33 -8 1
-25 -20 -41 -53 -35 -72 -82 -116 -152 -140 -71 -25 -103 -25 -170 0 -100 38
-152 92 -181 190 -61 204 71 404 265 403 60 -1 138 -29 175 -64 20 -19 21 -19
67 12 59 39 149 137 187 202 52 91 37 145 -61 219 -73 55 -117 76 -206 99 -71
18 -186 23 -253 12z"/>
<path d="M3826 1961 c-7 -10 37 -173 97 -365 l22 -68 55 -18 c74 -25 140 -95
169 -181 26 -79 26 -119 0 -204 -27 -88 -98 -164 -172 -185 -101 -28 -233 22
-288 108 -78 124 -70 251 25 375 l36 48 -16 62 c-21 82 -104 360 -108 365 -8
7 -86 -39 -147 -88 -163 -130 -256 -331 -266 -575 -10 -238 58 -415 222 -580
128 -129 293 -200 465 -198 135 1 290 53 401 134 69 51 163 163 203 243 109
216 115 531 15 730 -130 256 -328 390 -595 403 -78 4 -113 2 -118 -6z"/>
<path d="M1891 1514 c-40 -47 -104 -109 -143 -137 l-72 -52 50 -7 c73 -11 358
-27 368 -20 15 8 -1 138 -24 189 -28 63 -67 113 -89 113 -9 0 -49 -38 -90 -86z"/>
</g>
</svg>
