<?xml version="1.0" standalone="no"?>
<!DOCTYPE svg PUBLIC "-//W3C//DTD SVG 20010904//EN"
 "http://www.w3.org/TR/2001/REC-SVG-20010904/DTD/svg10.dtd">
<svg version="1.0" xmlns="http://www.w3.org/2000/svg"
 width="512.000000pt" height="512.000000pt" viewBox="0 0 512.000000 512.000000"
 preserveAspectRatio="xMidYMid meet">

<g transform="translate(0.000000,512.000000) scale(0.100000,-0.100000)"
fill="#000000" stroke="none">
<path d="M982 4813 c-26 -60 -23 -220 6 -307 13 -38 32 -86 42 -105 47 -90
146 -195 250 -263 41 -27 76 -51 78 -53 2 -2 -18 -32 -43 -67 -159 -215 -233
-522 -195 -803 23 -163 23 -189 5 -226 -10 -18 -91 -146 -180 -284 -192 -298
-241 -383 -344 -597 -196 -408 -342 -808 -387 -1060 -8 -47 2 -48 64 -6 86 58
132 100 164 150 37 57 41 54 57 -52 27 -167 33 -198 53 -260 45 -141 107 -240
218 -350 86 -86 159 -137 265 -186 107 -50 176 -65 310 -71 139 -6 252 14 379
67 217 90 402 284 487 508 l33 89 44 -31 c41 -29 50 -31 130 -31 113 0 171 26
221 100 32 49 33 51 29 141 -2 58 -9 98 -18 109 -12 14 -6 24 51 83 155 159
310 345 424 507 96 136 285 381 330 428 26 26 53 47 60 47 12 0 75 -169 75
-201 0 -8 -35 -32 -77 -54 -94 -49 -221 -166 -285 -262 -114 -172 -170 -351
-171 -543 0 -349 166 -660 446 -834 85 -53 219 -100 335 -117 207 -31 488 70
665 240 216 207 319 546 263 867 -61 345 -289 620 -606 727 -90 30 -103 32
-248 32 l-152 0 -26 85 c-57 191 -168 509 -197 565 -31 59 -33 60 -72 58 -22
-1 -109 -4 -194 -7 -178 -6 -207 -11 -221 -36 -25 -48 0 -94 65 -118 55 -21
150 -32 208 -26 l57 7 41 -87 40 -86 -92 -88 c-95 -89 -236 -259 -349 -418
-141 -199 -389 -495 -474 -564 -44 -36 -53 -40 -106 -40 -34 0 -61 5 -67 13
-5 6 -22 73 -37 147 -39 186 -88 333 -157 469 -110 217 -238 355 -414 448 -77
40 -120 77 -109 94 5 8 42 9 123 5 125 -7 192 4 272 45 60 30 129 103 129 135
l0 26 -72 -8 c-219 -26 -361 11 -531 140 -106 79 -183 184 -236 321 -37 95
-40 250 -7 380 34 131 77 217 144 287 70 74 128 110 227 144 71 23 90 26 170
21 115 -7 221 -43 322 -109 163 -106 283 -253 328 -401 46 -154 47 -145 -42
-288 -43 -69 -89 -146 -102 -170 l-24 -45 71 -105 c96 -142 176 -244 193 -246
12 -2 259 333 259 352 0 4 -26 44 -59 88 -32 45 -77 113 -101 150 -40 64 -42
71 -36 121 10 85 50 209 87 271 44 74 143 181 222 241 290 220 653 181 828
-89 86 -132 125 -309 109 -492 -16 -191 -56 -297 -162 -432 -62 -79 -75 -137
-37 -172 27 -25 86 -28 129 -6 74 38 187 230 235 399 79 279 9 651 -171 903
-25 35 -44 65 -42 67 1 1 26 15 53 31 149 84 276 234 326 382 18 55 20 81 17
176 -6 156 -32 204 -73 135 -33 -57 -186 -207 -261 -257 -123 -83 -318 -151
-434 -152 -39 -1 -83 9 -155 36 -267 98 -479 137 -755 138 -263 1 -414 -27
-700 -130 -118 -43 -129 -45 -200 -40 -129 10 -275 66 -415 160 -66 44 -222
197 -251 246 -10 17 -22 31 -27 31 -4 0 -15 -17 -25 -37z m571 -2812 c89 -23
133 -44 206 -99 98 -74 113 -128 61 -219 -38 -65 -128 -163 -187 -202 -46 -31
-47 -31 -67 -12 -37 35 -115 63 -175 64 -194 1 -326 -199 -265 -403 29 -98 81
-152 181 -190 67 -25 99 -25 170 0 70 24 117 68 152 140 16 33 33 54 41 53
101 -14 300 -33 353 -33 79 0 79 0 46 -106 -65 -211 -209 -387 -384 -470 -222
-106 -452 -95 -666 32 -69 41 -182 159 -232 241 -196 322 -131 759 152 1025
103 98 242 171 361 191 67 11 182 6 253 -12z m2572 -64 c108 -37 168 -71 235
-134 70 -64 134 -150 179 -239 100 -199 94 -514 -15 -730 -40 -80 -134 -192
-203 -243 -111 -81 -266 -133 -401 -134 -172 -2 -337 69 -465 198 -164 165
-232 342 -222 580 10 244 103 445 266 575 61 49 139 95 147 88 4 -5 87 -283
108 -365 l16 -62 -36 -48 c-95 -124 -104 -251 -25 -375 55 -86 187 -136 288
-108 74 21 145 97 172 185 27 85 26 125 -1 205 -28 85 -102 163 -171 182 -27
7 -52 19 -57 28 -4 8 -20 60 -35 115 -15 55 -40 142 -56 194 -17 52 -27 101
-24 109 9 24 211 10 300 -21z m-2101 -370 c14 -18 35 -54 46 -80 23 -51 39
-181 24 -189 -10 -7 -295 9 -368 20 l-50 7 72 52 c39 28 103 90 143 137 41 48
81 86 90 86 10 0 29 -15 43 -33z"/>
<path d="M1898 3726 c-146 -39 -232 -214 -184 -377 59 -203 316 -261 456 -102
53 61 74 126 68 217 -9 126 -80 224 -189 259 -60 20 -87 20 -151 3z"/>
<path d="M3185 3722 c-76 -26 -121 -66 -157 -139 -65 -132 -35 -288 70 -368
57 -44 140 -69 196 -61 97 15 184 82 221 170 20 48 19 170 -2 231 -24 72 -103
149 -172 169 -68 20 -93 20 -156 -2z"/>
</g>
</svg>
